name rise30.3154peak39.0474fall46.5389.mot
datacolumns 19
datarows 21
range 8.52663300000000 8.55996600000000
endheader
time	ground_force1_vx	ground_force1_vy	ground_force1_vz	ground_force1_px	ground_force1_py	ground_force1_pz	ground_force2_vx	ground_force2_vy	ground_force2_vz	ground_force2_px	ground_force2_py	ground_force2_pz	ground_torque1_x	ground_torque1_y	ground_torque1_z	ground_torque2_x	ground_torque2_y	ground_torque2_z	
8.52663300000000	6.12109800000000	724.81394699999998	54.03976500000000	0.24530000000000	0.00000000000000	0.14849700000000	0.00000000000000	0.00000000000000	0.00000000000000	0.00000000000000	0.00000000000000	0.00000000000000	0.00000000000000	22.55712600000000	0.00000000000000	0.00000000000000	0.00000000000000	0.00000000000000	
8.52830600000000	5.88656600000000	724.98774800000001	53.99400500000000	0.24477300000000	0.00000000000000	0.14843000000000	0.00000000000000	0.00000000000000	0.00000000000000	0.00000000000000	0.00000000000000	0.00000000000000	0.00000000000000	22.55371500000000	0.00000000000000	0.00000000000000	0.00000000000000	0.00000000000000	
8.52997000000000	5.64041700000000	725.16385700000001	53.95387600000000	0.24422400000000	0.00000000000000	0.14836600000000	0.00000000000000	0.00000000000000	0.00000000000000	0.00000000000000	0.00000000000000	0.00000000000000	0.00000000000000	22.55696600000000	0.00000000000000	0.00000000000000	0.00000000000000	0.00000000000000	
8.53163900000000	5.38213000000000	725.34269099999995	53.91919100000000	0.24365000000000	0.00000000000000	0.14830300000000	0.00000000000000	0.00000000000000	0.00000000000000	0.00000000000000	0.00000000000000	0.00000000000000	0.00000000000000	22.56679100000000	0.00000000000000	0.00000000000000	0.00000000000000	0.00000000000000	
8.53330000000000	5.11123300000000	725.52475400000003	53.88975800000000	0.24305000000000	0.00000000000000	0.14824300000000	0.00000000000000	0.00000000000000	0.00000000000000	0.00000000000000	0.00000000000000	0.00000000000000	0.00000000000000	22.58308900000000	0.00000000000000	0.00000000000000	0.00000000000000	0.00000000000000	
8.53497500000000	4.82730700000000	725.71062800000004	53.86537600000000	0.24242200000000	0.00000000000000	0.14818400000000	0.00000000000000	0.00000000000000	0.00000000000000	0.00000000000000	0.00000000000000	0.00000000000000	0.00000000000000	22.60575000000000	0.00000000000000	0.00000000000000	0.00000000000000	0.00000000000000	
8.53663400000000	4.52998700000000	725.90097300000002	53.84583900000000	0.24176300000000	0.00000000000000	0.14812800000000	0.00000000000000	0.00000000000000	0.00000000000000	0.00000000000000	0.00000000000000	0.00000000000000	0.00000000000000	22.63465400000000	0.00000000000000	0.00000000000000	0.00000000000000	0.00000000000000	
8.53830300000000	4.21896100000000	726.09651899999994	53.83093700000000	0.24107400000000	0.00000000000000	0.14807300000000	0.00000000000000	0.00000000000000	0.00000000000000	0.00000000000000	0.00000000000000	0.00000000000000	0.00000000000000	22.66967300000000	0.00000000000000	0.00000000000000	0.00000000000000	0.00000000000000	
8.53997000000000	3.89397200000000	726.29806499999995	53.82045400000000	0.24035300000000	0.00000000000000	0.14802100000000	0.00000000000000	0.00000000000000	0.00000000000000	0.00000000000000	0.00000000000000	0.00000000000000	0.00000000000000	22.71066800000000	0.00000000000000	0.00000000000000	0.00000000000000	0.00000000000000	
8.54164900000000	3.55481900000000	726.50647000000004	53.81417000000000	0.23959900000000	0.00000000000000	0.14797000000000	0.00000000000000	0.00000000000000	0.00000000000000	0.00000000000000	0.00000000000000	0.00000000000000	0.00000000000000	22.75749600000000	0.00000000000000	0.00000000000000	0.00000000000000	0.00000000000000	
8.54330800000000	3.20135700000000	726.72265000000004	53.81186500000000	0.23881100000000	0.00000000000000	0.14792100000000	0.00000000000000	0.00000000000000	0.00000000000000	0.00000000000000	0.00000000000000	0.00000000000000	0.00000000000000	22.81000600000000	0.00000000000000	0.00000000000000	0.00000000000000	0.00000000000000	
8.54497500000000	2.83349600000000	726.94757200000004	53.81331300000000	0.23798900000000	0.00000000000000	0.14787400000000	0.00000000000000	0.00000000000000	0.00000000000000	0.00000000000000	0.00000000000000	0.00000000000000	0.00000000000000	22.86804200000000	0.00000000000000	0.00000000000000	0.00000000000000	0.00000000000000	
8.54663900000000	2.45120000000000	727.18224799999996	53.81829200000000	0.23713300000000	0.00000000000000	0.14782900000000	0.00000000000000	0.00000000000000	0.00000000000000	0.00000000000000	0.00000000000000	0.00000000000000	0.00000000000000	22.93144200000000	0.00000000000000	0.00000000000000	0.00000000000000	0.00000000000000	
8.54830700000000	2.05448800000000	727.42772900000000	53.82657700000000	0.23624300000000	0.00000000000000	0.14778500000000	0.00000000000000	0.00000000000000	0.00000000000000	0.00000000000000	0.00000000000000	0.00000000000000	0.00000000000000	23.00004100000000	0.00000000000000	0.00000000000000	0.00000000000000	0.00000000000000	
8.54997300000000	1.64343200000000	727.68509800000004	53.83794400000000	0.23531900000000	0.00000000000000	0.14774300000000	0.00000000000000	0.00000000000000	0.00000000000000	0.00000000000000	0.00000000000000	0.00000000000000	0.00000000000000	23.07366800000000	0.00000000000000	0.00000000000000	0.00000000000000	0.00000000000000	
8.55163900000000	1.21815700000000	727.95546500000000	53.85217100000000	0.23436200000000	0.00000000000000	0.14770200000000	0.00000000000000	0.00000000000000	0.00000000000000	0.00000000000000	0.00000000000000	0.00000000000000	0.00000000000000	23.15215500000000	0.00000000000000	0.00000000000000	0.00000000000000	0.00000000000000	
8.55330200000000	0.77883700000000	728.23996099999999	53.86904000000000	0.23337300000000	0.00000000000000	0.14766300000000	0.00000000000000	0.00000000000000	0.00000000000000	0.00000000000000	0.00000000000000	0.00000000000000	0.00000000000000	23.23532500000000	0.00000000000000	0.00000000000000	0.00000000000000	0.00000000000000	
8.55496700000000	0.32569700000000	728.53973099999996	53.88833500000000	0.23235300000000	0.00000000000000	0.14762500000000	0.00000000000000	0.00000000000000	0.00000000000000	0.00000000000000	0.00000000000000	0.00000000000000	0.00000000000000	23.32300600000000	0.00000000000000	0.00000000000000	0.00000000000000	0.00000000000000	
8.55663700000000	-0.14099300000000	728.85592399999996	53.90984500000000	0.23130200000000	0.00000000000000	0.14758900000000	0.00000000000000	0.00000000000000	0.00000000000000	0.00000000000000	0.00000000000000	0.00000000000000	0.00000000000000	23.41502300000000	0.00000000000000	0.00000000000000	0.00000000000000	0.00000000000000	
8.55830000000000	-0.62091700000000	729.18969500000003	53.93336400000000	0.23022300000000	0.00000000000000	0.14755300000000	0.00000000000000	0.00000000000000	0.00000000000000	0.00000000000000	0.00000000000000	0.00000000000000	0.00000000000000	23.51119900000000	0.00000000000000	0.00000000000000	0.00000000000000	0.00000000000000	
8.55996600000000	-1.11371700000000	729.54219000000001	53.95869400000000	0.22911600000000	0.00000000000000	0.14751800000000	0.00000000000000	0.00000000000000	0.00000000000000	0.00000000000000	0.00000000000000	0.00000000000000	0.00000000000000	23.61136100000000	0.00000000000000	0.00000000000000	0.00000000000000	0.00000000000000	
